<svg xmlns="http://www.w3.org/2000/svg" xmlns:xlink="http://www.w3.org/1999/xlink" width="500" zoomAndPan="magnify" viewBox="0 0 375 374.999991" height="500" preserveAspectRatio="xMidYMid meet" version="1.0"><defs><g/><clipPath id="0d9c8ba882"><path d="M 69.023438 79.738281 L 115.746094 79.738281 L 115.746094 126.460938 L 69.023438 126.460938 Z M 69.023438 79.738281 " clip-rule="nonzero"/></clipPath></defs><rect x="-37.5" width="450" fill="#ffffff" y="-37.499999" height="449.999989" fill-opacity="1"/><rect x="-37.5" width="450" fill="#ffffff" y="-37.499999" height="449.999989" fill-opacity="1"/><g fill="#000000" fill-opacity="1"><g transform="translate(25.256575, 231.084032)"><g><path d="M 172.46875 -62.59375 C 172.46875 -68.601562 171.554688 -73.335938 169.734375 -76.796875 C 167.910156 -80.265625 165.628906 -82.863281 162.890625 -84.59375 C 160.160156 -86.320312 157.066406 -87.457031 153.609375 -88 C 150.148438 -88.550781 146.6875 -88.828125 143.21875 -88.828125 L 125.734375 -88.828125 L 125.734375 -91.296875 L 198.15625 -91.296875 L 198.15625 -88.828125 C 196.695312 -88.828125 195.648438 -88.003906 195.015625 -86.359375 C 194.378906 -84.722656 193.925781 -82.675781 193.65625 -80.21875 C 193.382812 -77.757812 193.15625 -75.160156 192.96875 -72.421875 C 192.789062 -69.691406 192.425781 -67.234375 191.875 -65.046875 C 188.59375 -50.285156 182.441406 -37.984375 173.421875 -28.140625 C 164.398438 -18.304688 153.921875 -10.929688 141.984375 -6.015625 C 130.054688 -1.097656 117.347656 1.222656 103.859375 0.953125 C 90.378906 0.679688 77.535156 -2.09375 65.328125 -7.375 C 53.117188 -12.664062 42.1875 -20.59375 32.53125 -31.15625 C 22.875 -41.726562 15.945312 -54.941406 11.75 -70.796875 C 8.289062 -83.734375 7.472656 -96.578125 9.296875 -109.328125 C 11.117188 -122.085938 15.125 -133.84375 21.3125 -144.59375 C 27.507812 -155.34375 35.664062 -164.679688 45.78125 -172.609375 C 55.894531 -180.535156 67.421875 -186.226562 80.359375 -189.6875 C 89.648438 -192.238281 98.941406 -193.332031 108.234375 -192.96875 C 117.523438 -192.601562 126.453125 -191.050781 135.015625 -188.3125 C 143.585938 -185.582031 151.65625 -181.710938 159.21875 -176.703125 C 166.78125 -171.691406 173.472656 -165.722656 179.296875 -158.796875 L 172.75 -134.75 L 170.28125 -134.75 C 166.09375 -143.132812 160.898438 -151.109375 154.703125 -158.671875 C 148.503906 -166.234375 141.578125 -172.5625 133.921875 -177.65625 C 126.273438 -182.757812 117.988281 -186.3125 109.0625 -188.3125 C 100.132812 -190.320312 90.75 -190.050781 80.90625 -187.5 C 69.0625 -184.40625 59.3125 -178.847656 51.65625 -170.828125 C 44 -162.804688 38.164062 -153.554688 34.15625 -143.078125 C 30.15625 -132.609375 27.925781 -121.453125 27.46875 -109.609375 C 27.007812 -97.765625 28.148438 -86.554688 30.890625 -75.984375 C 34.535156 -62.503906 39.957031 -51.023438 47.15625 -41.546875 C 54.351562 -32.066406 62.503906 -24.457031 71.609375 -18.71875 C 80.722656 -12.976562 90.425781 -9.148438 100.71875 -7.234375 C 111.019531 -5.328125 121.085938 -5.285156 130.921875 -7.109375 C 140.210938 -9.109375 147.59375 -12.15625 153.0625 -16.25 C 158.53125 -20.351562 162.675781 -25.003906 165.5 -30.203125 C 168.320312 -35.398438 170.1875 -40.820312 171.09375 -46.46875 C 172.007812 -52.113281 172.46875 -57.488281 172.46875 -62.59375 Z M 172.46875 -62.59375 "/></g></g></g><g fill="#000000" fill-opacity="1"><g transform="translate(69.022507, 334.380591)"><g><path d="M 249.28125 -191.875 L 272.515625 -191.875 L 272.515625 -189.421875 C 270.503906 -189.421875 267.628906 -187.140625 263.890625 -182.578125 C 260.160156 -178.023438 256.203125 -169.644531 252.015625 -157.4375 L 203.359375 -15.03125 L 208.28125 0 L 187.78125 0 L 138.296875 -144.3125 L 94.03125 -15.03125 L 99.21875 0 L 78.4375 0 L 26.515625 -151.96875 C 24.691406 -157.070312 22.914062 -161.898438 21.1875 -166.453125 C 19.457031 -171.015625 17.816406 -175.023438 16.265625 -178.484375 C 14.710938 -181.941406 13.253906 -184.628906 11.890625 -186.546875 C 10.523438 -188.460938 9.296875 -189.421875 8.203125 -189.421875 L 8.203125 -191.875 L 40.171875 -191.875 L 40.171875 -189.421875 C 39.265625 -189.421875 38.992188 -186.867188 39.359375 -181.765625 C 39.722656 -176.660156 41.085938 -170.28125 43.453125 -162.625 L 92.65625 -18.859375 L 136.9375 -148.140625 L 135.578125 -151.96875 C 133.753906 -157.070312 131.972656 -161.898438 130.234375 -166.453125 C 128.503906 -171.015625 126.863281 -175.023438 125.3125 -178.484375 C 123.769531 -181.941406 122.359375 -184.628906 121.078125 -186.546875 C 119.804688 -188.460938 118.625 -189.421875 117.53125 -189.421875 L 117.53125 -191.875 L 149.515625 -191.875 L 149.515625 -189.421875 C 148.597656 -189.421875 148.273438 -186.867188 148.546875 -181.765625 C 148.828125 -176.660156 150.242188 -170.28125 152.796875 -162.625 L 201.984375 -18.859375 L 249.546875 -158.25 C 256.648438 -179.03125 256.5625 -189.421875 249.28125 -189.421875 Z M 249.28125 -191.875 "/></g></g></g><g clip-path="url(#0d9c8ba882)"><path fill="#000000" d="M 115.742188 103.097656 C 98.222656 106.320312 95.609375 108.9375 92.382812 126.457031 C 89.15625 108.9375 86.542969 106.320312 69.023438 103.097656 C 86.542969 99.871094 89.15625 97.257812 92.382812 79.738281 C 95.609375 97.257812 98.222656 99.871094 115.742188 103.097656 Z M 115.742188 103.097656 " fill-opacity="1" fill-rule="nonzero"/></g></svg>